<?xml version="1.0" encoding="UTF-8"?>
<svg id="Calque_2" data-name="Calque 2" xmlns="http://www.w3.org/2000/svg" viewBox="0 0 965.17 981.75">
  <defs>
    <style>
      .cls-1, .cls-2, .cls-3 {
        fill: none;
      }

      .cls-1, .cls-4 {
        stroke-width: 0px;
      }

      .cls-2 {
        stroke-width: 18px;
      }

      .cls-2, .cls-3 {
        stroke: #1d1d1b;
        stroke-miterlimit: 10;
      }

      .cls-4 {
        fill: #1d1d1b;
      }

      .cls-3 {
        stroke-width: 9px;
      }
    </style>
  </defs>
  <polygon class="cls-1" points="737.43 195.95 754.07 239.47 792.21 205.2 788.98 254.45 829.16 255.42 803.99 290.42 830.24 302.85 801.45 320.52 811.73 337.16 788.58 334.34 767.68 352.62 728.79 436.56 722.12 330.39 678.84 263.11 699.46 263.69 723.27 243.23 737.43 195.95"/>
  <circle class="cls-3" cx="752.72" cy="293.76" r="28.13"/>
  <polygon class="cls-2" points="722.29 459.99 772.33 356.31 789.92 340.38 822.96 344.87 809.28 322.57 843.91 302.61 812.83 288.64 841.19 249.82 795.06 249.66 799.25 190.4 756.51 230.43 737.03 176.8 718.37 238.89 697.36 257.88 666.37 256.28 716.12 329.74 722.29 459.99"/>
  <g>
    <path class="cls-4" d="M14.5,558.93L0,363.61h88.67l3.35,46.01.28-.28c2.42-3.9,4.25-6.88,5.51-8.92,1.25-2.04,2.11-3.49,2.58-4.32.46-.84.67-1.23.63-1.19s-.19.16-.42.35c-.23.19-.35.33-.35.42s.28-.23.84-.98l.84-1.39c.93-1.3,1.81-2.69,2.65-4.18.84-1.49,1.53-2.74,2.09-3.76l1.53-2.51c1.39-2.6,2.76-4.97,4.11-7.11,1.35-2.14,2.67-4.32,3.97-6.55.65-1.67,1.16-2.86,1.53-3.56.37-.7.65-1.16.84-1.39.19-.23.32-.32.42-.28.09.05.23-.07.42-.35h88.67l-115.99,195.32H14.5ZM83.37,539.97c7.99-13.38,15.82-26.58,23.49-39.59,7.67-13.01,15.36-26,23.07-38.97,7.71-12.97,15.45-25.98,23.21-39.04,7.76-13.06,15.59-26.28,23.49-39.66h-48.52c-3.9,6.69-8.09,13.76-12.55,21.19-4.46,7.44-8.92,14.94-13.38,22.52-4.46,7.58-8.9,15.06-13.31,22.45-4.42,7.39-8.57,14.43-12.48,21.12l-6.41-87.27H21.47c1.95,26.4,3.86,52.58,5.72,78.56,1.86,25.98,3.76,52.21,5.72,78.7h50.47Z"/>
    <path class="cls-4" d="M309.36,450.46l-5.72,21.75h27.46l-22.45,86.72h-98.01c-4.93,0-9.81-.33-14.64-.98-4.83-.65-9.43-1.72-13.8-3.21l.28.14c-.37-.09-.7-.21-.98-.35s-.56-.26-.84-.35l-.84-.28h-.42c-.28,0-.72-.19-1.32-.56-.61-.37-.91-.51-.91-.42h.14c-.19,0-.47-.09-.84-.28h.14c-2.7-1.21-5.02-2.35-6.97-3.42-1.95-1.07-3.72-2.16-5.3-3.28-1.58-1.12-3.07-2.32-4.46-3.62-1.39-1.3-2.88-2.79-4.46-4.46-.19,0-.42-.16-.7-.49-.28-.32-.56-.63-.84-.91l-.42-.7c-.28-.37-.65-.77-1.12-1.19-.47-.42-.93-.84-1.39-1.25-.47-.42-.81-.81-1.05-1.19-.23-.37-.35-.7-.35-.98l-.56-.84c-1.67-2.23-3.39-4.65-5.16-7.25-1.77-2.6-2.98-5.25-3.62-7.95-1.39-3.62-2.51-7.11-3.35-10.46s-1.39-6.97-1.67-10.87c.09-3.16.14-5.99.14-8.5s.07-4.9.21-7.18c.14-2.28.37-4.6.7-6.97.33-2.37.86-5,1.6-7.88l.56-1.95c.56-2.14,1.14-4.13,1.74-5.99.6-1.86,1.05-3.3,1.32-4.32l.14-.28c.28-1.12.72-2.44,1.32-3.97.6-1.53,1.23-2.97,1.88-4.32.65-1.35,1.19-2.46,1.6-3.35.42-.88.58-1.28.49-1.19,1.67-3.35,3.51-6.6,5.51-9.76,2-3.16,4.16-6.32,6.48-9.48l1.25-1.53c2.23-2.88,4.53-5.69,6.9-8.43,2.37-2.74,4.9-5.32,7.6-7.74l3.35-2.93c1.21-.74,2.35-1.67,3.42-2.79,1.07-1.12,2.21-2.09,3.42-2.93l.28-.14.98-.98c.28-.28.7-.56,1.25-.84l-.14.14c.19-.19.37-.32.56-.42.19-.09.37-.23.56-.42l1.53-1.25,5.44-3.76c1.95-1.39,4.06-2.74,6.34-4.04,2.28-1.3,4.62-2.6,7.04-3.9l1.12-.56-.14.14c1.67-.84,3.14-1.56,4.39-2.16,1.25-.6,2.58-1.14,3.97-1.6h-.14c1.49-.65,2.88-1.21,4.18-1.67,1.3-.46,2.88-1.02,4.74-1.67h-.28l.28-.14h.42c.65-.19,1.56-.42,2.72-.7,1.16-.28,2.07-.56,2.72-.84h.28c2.69-.65,4.65-1.12,5.86-1.39,1.21-.28,2.09-.49,2.65-.63s1.02-.23,1.39-.28c.37-.05,1.21-.16,2.51-.35,1.02,0,1.83-.05,2.44-.14.6-.09,1.16-.16,1.67-.21.51-.05.91-.16,1.19-.35h-.14c1.67-.19,3.44-.32,5.3-.42,1.86-.09,3.72-.14,5.58-.14h98.01l-22.59,86.86h-27.46ZM220.69,440.14c7.16-5.76,14.82-8.64,23-8.64h79.05l12.69-48.8h-79.05c-9.29,0-18.4,1.39-27.33,4.18h.14c-8.64,2.7-16.85,6.58-24.61,11.64-7.76,5.07-14.78,10.9-21.05,17.5-6.27,6.6-11.69,13.78-16.24,21.54-4.55,7.76-7.86,15.68-9.9,23.77-2.14,8.09-2.95,15.99-2.44,23.7.51,7.72,2.18,14.9,5.02,21.54,2.83,6.65,6.81,12.5,11.92,17.57,5.11,5.07,11.34,8.95,18.68,11.64h-.14c3.81,1.3,7.76,2.32,11.85,3.07,4.09.75,8.5,1.12,13.24,1.12h79.05l12.69-48.8h-78.77c-8.27,0-15.61-4.51-22.03-13.52h76.82l8.5-32.62h-77.24l6.13-4.88Z"/>
    <path class="cls-4" d="M342.68,363.61h86.86l-.14.56c1.3-.09,2.67-.21,4.11-.35,1.44-.14,2.81-.21,4.11-.21h2.65c3.44,0,6.04.02,7.81.07,1.76.05,3.11.14,4.04.28.93.14,1.72.3,2.37.49.65.19,1.62.42,2.93.7,1.3.19,2.95.56,4.95,1.12,2,.56,4.06,1.12,6.2,1.67.37.19.65.28.84.28,3.07,1.12,5.88,2.32,8.43,3.62,2.56,1.3,5,2.74,7.32,4.32,2.32,1.58,4.58,3.35,6.76,5.3s4.39,4.14,6.62,6.55c.93,1.67,2,3.02,3.21,4.04,1.39,1.95,2.72,3.93,3.97,5.93,1.25,2,2.35,3.97,3.28,5.93l-.14-.28v.21s.05.12.14.21l.42.84c.28.93.54,1.74.77,2.44s.63,1.56,1.19,2.58v-.14c.84,1.86,1.32,3.18,1.46,3.97.14.79.3,1.6.49,2.44l.14-.28c.09.47.26,1.09.49,1.88.23.79.4,1.84.49,3.14l.14-.14c.19,1.12.3,2.07.35,2.86.05.79.09,1.46.14,2.02s.12,1.09.21,1.6c.09.51.28,1.09.56,1.74v4.53c0,1.35.02,2.51.07,3.49s.02,1.77-.07,2.37c-.09.61-.09.81,0,.63-.19,2.51-.4,5-.63,7.46-.23,2.46-.63,5.18-1.19,8.16l-.42,1.39c0,.56-.12,1.23-.35,2.02-.23.79-.44,1.56-.63,2.3l-25.37,97.59h-86.85l25.37-97.59c.46-1.86.51-3.42.14-4.67-.37-1.25-.84-2.25-1.39-3-.19,0-.42-.12-.7-.35-.28-.23-.56-.46-.84-.7-.28-.23-.61-.58-.98-1.05-.28-.19-.61-.3-.98-.35-.37-.05-.65-.16-.84-.35h.42c-.19,0-.63-.07-1.32-.21s-1.23-.21-1.6-.21h-.7c-.47,0-1,.07-1.6.21-.61.14-.86.21-.77.21h.7c-2.42.47-4.18,1.16-5.3,2.09-1.12.93-2.14,1.91-3.07,2.93v-.14c0,.09-.23.49-.7,1.19-.47.7-.75,1.09-.84,1.19l.14-.28c-.19.19-.4.58-.63,1.19-.23.61-.4,1.09-.49,1.46l-25.65,98.43h-86.86l50.75-195.32ZM315.77,539.97h48.8l20.49-78.63c1.02-3.99,2.79-7.81,5.3-11.43s5.51-6.78,8.99-9.48c3.49-2.69,7.23-4.86,11.22-6.48,3.99-1.62,8.04-2.44,12.13-2.44s7.6.79,10.8,2.37c3.21,1.58,5.81,3.74,7.81,6.48,2,2.74,3.32,5.93,3.97,9.55.65,3.62.46,7.44-.56,11.43l-20.49,78.63h48.93l20.49-78.63c1.21-4.74,2-9.27,2.37-13.59s.47-8.57.28-12.76v.14c-.74-7.99-2.84-15.22-6.27-21.68-3.44-6.46-7.83-11.97-13.17-16.52-5.35-4.55-11.57-8.06-18.68-10.53-7.11-2.46-14.71-3.69-22.79-3.69-9.02,0-19.43,1.77-31.23,5.3l1.39-5.3h-48.8l-40.99,157.26ZM420.2,450.88l-.14-.14c0,.09.05.14.14.14ZM426.19,458.41v.14c.09,0,.14-.05.14-.14h-.14Z"/>
    <path class="cls-4" d="M658.73,586.11h-86.86l7.25-27.74c-.19.19-.7.3-1.53.35-.84.05-1.81.09-2.93.14-1.12.05-2.28.07-3.49.07h-6.41c-1.58.09-3.02.05-4.32-.14-1.3-.19-2.6-.37-3.9-.56l-3.35-.28c-.37,0-1.19-.12-2.44-.35-1.25-.23-2.63-.54-4.11-.91-1.49-.37-3-.79-4.53-1.25-1.53-.47-2.81-.88-3.83-1.25l-1.25-.42c-2.42-.93-4.93-2.02-7.53-3.28-2.6-1.25-4.83-2.67-6.69-4.25-.09-.09-.16-.14-.21-.14s-.12-.05-.21-.14c-.65-.56-1.44-1.12-2.37-1.67-.93-.56-1.81-1.16-2.65-1.81-.84-.65-1.63-1.3-2.37-1.95-.74-.65-1.3-1.35-1.67-2.09-.09-.28-.56-.79-1.39-1.53-.84-.74-1.44-1.35-1.81-1.81l-3.62-4.74c-6.97-9.48-11.34-19.77-13.1-30.88-1.76-11.11-1.12-23.16,1.95-36.18l.56-1.95c.56-2.14,1.14-4.13,1.74-5.99.6-1.86,1.05-3.3,1.32-4.32l.28-.28c.28-1.12.72-2.44,1.32-3.97.6-1.53,1.21-2.97,1.81-4.32.6-1.35,1.12-2.46,1.53-3.35.42-.88.63-1.28.63-1.19,5.11-10.41,11.9-20.22,20.35-29.42,8.46-9.2,18.73-17.75,30.81-25.65,3.25-2.23,6.34-4.06,9.27-5.51,2.93-1.44,6.06-2.9,9.41-4.39,1.76-.74,3.58-1.44,5.44-2.09,1.86-.65,3.62-1.3,5.3-1.95l5.72-1.53c.65-.19,1.25-.32,1.81-.42.56-.09,1.12-.23,1.67-.42h-.14c.65-.19,1.19-.32,1.6-.42.42-.09.86-.19,1.32-.28l2.37-.42c2.42-.46,4.72-.81,6.9-1.05,2.18-.23,4.44-.44,6.76-.63h1.67c.28,0,.56-.02.84-.07.28-.05.56-.07.84-.07h5.16c.37,0,.7.02.98.07.28.05.56.07.84.07h1.53c.19,0,.72.02,1.6.07.88.05,1.56.12,2.02.21h.28c.28,0,.51.05.7.14l.14-.56h86.86l-57.86,222.51ZM692.75,382.71h-48.93l-1.39,5.3c-9.85-3.53-19.33-5.3-28.44-5.3s-18.4,1.39-27.33,4.18h.14c-8.74,2.7-16.99,6.58-24.75,11.64-7.76,5.07-14.78,10.9-21.05,17.5-6.27,6.6-11.66,13.78-16.17,21.54-4.51,7.76-7.83,15.68-9.97,23.77-2.14,8.09-2.95,15.99-2.44,23.7.51,7.72,2.18,14.9,5.02,21.54,2.83,6.65,6.83,12.5,11.99,17.57,5.16,5.07,11.36,8.95,18.61,11.64h-.14c3.9,1.3,7.88,2.32,11.92,3.07,4.04.75,8.43,1.12,13.17,1.12s9.71-.46,14.92-1.39c5.2-.93,10.69-2.28,16.45-4.04l-8.5,32.62h48.93l47.96-184.45ZM563.65,461.34c1.02-3.99,2.81-7.81,5.37-11.43,2.56-3.62,5.55-6.78,8.99-9.48,3.44-2.69,7.16-4.86,11.15-6.48,4-1.62,8.04-2.44,12.13-2.44s7.6.79,10.8,2.37c3.21,1.58,5.83,3.74,7.88,6.48,2.04,2.74,3.37,5.93,3.97,9.55.6,3.62.39,7.44-.63,11.43-1.02,4-2.79,7.81-5.3,11.43s-5.46,6.79-8.85,9.48c-3.39,2.7-7.13,4.86-11.22,6.48-4.09,1.63-8.18,2.44-12.27,2.44s-7.72-.81-10.87-2.44c-3.16-1.62-5.74-3.81-7.74-6.55-2-2.74-3.32-5.9-3.97-9.48-.65-3.58-.47-7.37.56-11.36ZM582.33,463.43l-.14.56c0,.09.02.16.07.21.05.05.02.12-.07.21l.14-.14v.14l.28.42-.28.98c.28.75.53,1.3.77,1.67.23.37.53.84.91,1.39l.28,1.95c.19-.56.19-.93,0-1.12.37.19.74.44,1.12.77.37.33.79.58,1.25.77l1.25.7-.14-.14c.28.09.53.16.77.21.23.05.53.12.91.21h1.25c.46,0,.91-.02,1.32-.07.42-.05,1.05-.16,1.88-.35h-.42l.14-.14h.7c.37-.19.81-.37,1.32-.56.51-.19.91-.37,1.19-.56l-.14.14c.37-.19.93-.56,1.67-1.12l.84-.7c.46-.37.84-.7,1.12-.98l.28-.14c.19-.19.39-.42.63-.7.23-.28.44-.51.63-.7l.14-.14c.19-.56.58-1.32,1.19-2.3.6-.98,1-1.83,1.19-2.58.19-.74.21-1.74.07-3s-.21-2.16-.21-2.72l.28.7c-.09-.19-.19-.42-.28-.7-.09-.28-.23-.56-.42-.84l-1.25-1.67c-.74-.46-1.3-.81-1.67-1.05-.37-.23-.65-.44-.84-.63l-1.12-.56h.42c-.28,0-.51-.05-.7-.14l-.14-.14v.14c-.93-.19-1.67-.28-2.23-.28-.84,0-1.81.14-2.93.42.28,0,.37.05.28.14l-.98.14c-.28,0-.84.23-1.67.7-.84.47-1.49.84-1.95,1.12l-2.65,1.95c-.28.19-.58.51-.91.98-.33.47-.63.79-.91.98l.84-.7-.7.84.28-.42-.84,1.39-.98,1.67-.84,3.21v.56ZM582.33,466.35l-.14.14c0,.09.02.16.07.21.05.05.07.12.07.21v-.56ZM582.33,465.38c-.09.09-.12.16-.07.21.05.05.07.12.07.21v.56-.98ZM583.45,459.38l-.98.7,1.39-1.95c0,.19-.05.3-.14.35-.09.05-.14.12-.14.21l-.14.56v.14ZM590.98,451.58c-.09.09-.19.14-.28.14h-.14l.42-.14ZM591.81,451.44c-.19.09-.37.14-.56.14h-.28l.84-.14ZM593.63,450.46c-.19.19-.35.33-.49.42-.14.09-.3.19-.49.28h-.7c-.09,0-.16.02-.21.07-.05.05-.12.07-.21.07l2.09-.84ZM595.3,471.51c.74-.56,1.44-.84,2.09-.84l-2.09.84ZM600.88,451.72c-.19-.09-.42-.32-.7-.7l1.67.84c-.09,0-.16-.02-.21-.07-.05-.05-.12-.07-.21-.07h-.56ZM601.85,466.91c0-.09-.02-.16-.07-.21-.05-.05-.07-.12-.07-.21.09-.28.28-.56.56-.84l-.42,1.25ZM603.25,464.54l-.56.7c0-.19.19-.42.56-.7Z"/>
    <path class="cls-4" d="M891,472.21h46.01l-22.59,86.72h-195.32l20.63-79.61,53.4-28.86h-45.87l22.59-86.86h195.32l-20.63,79.61-53.54,29ZM928.22,432.76l13.1-50.05h-157.4l-12.69,48.8h93.13l-108.33,58.41-13.1,50.05h157.4l12.69-48.8h-93.41l108.6-58.41Z"/>
  </g>
</svg>