<?xml version="1.0" encoding="UTF-8"?><svg id="Calque_2" xmlns="http://www.w3.org/2000/svg" viewBox="0 0 699.14 981.75"><polygon points="340.89 97.36 390.02 240.53 521.09 136.69 503.61 294.89 636.59 304.99 548.37 413.46 633.63 458.09 535.81 510.06 567.56 565.47 491.25 552.37 419.51 607.66 279.1 871.49 271.64 528.09 137.53 303.68 205.76 309.11 287.46 247.32 340.89 97.36" style="fill:white; stroke-width:0px;"/><ellipse cx="378.06" cy="415.31" rx="90.7" ry="93.41" transform="translate(-108.32 696.11) rotate(-77.69)" style="fill:white; stroke:#1d1d1b; stroke-miterlimit:10; stroke-width:18px;"/><polygon points="254.33 945.91 434.39 620.37 494.87 572.08 603.72 592.29 561.47 518.02 678.95 459.7 577.9 409.26 677.22 289.03 524.41 280.51 546.46 90.19 399.34 211.82 342.2 35.55 271.82 232.47 199.58 290.03 97.13 279.49 251.83 524.94 254.33 945.91" style="fill:white; stroke:#1d1d1b; stroke-miterlimit:10; stroke-width:18px;"/></svg>