<?xml version="1.0" encoding="UTF-8"?><svg id="Calque_2" xmlns="http://www.w3.org/2000/svg" viewBox="0 0 542.5 875.88"><defs><style>.cls-1{fill:#fff;stroke-width:0px;}</style></defs><g id="Calque_2-2"><path class="cls-1" d="M267.55,469.97c-5.42,0-10.97-.42-16.64-1.26l-.51-.09c-23.85-4.52-44.52-18.05-58.19-38.12-13.67-20.06-18.71-44.25-14.19-68.1h0c4.52-23.85,18.06-44.52,38.12-58.19,20.06-13.67,44.24-18.71,68.1-14.19l.5.11c26.91,6.21,47.85,20.68,60.56,41.83,11.31,18.82,15.18,41.62,10.9,64.2-4.28,22.58-16.23,42.38-33.64,55.76-15.51,11.92-34.3,18.04-55.03,18.04ZM255,443.03c44.28,6.47,69.91-21.28,75.67-51.7,5.76-30.42-7.94-65.61-51.52-75.8-16.95-3.15-34.11.47-48.36,10.18-14.32,9.76-23.99,24.51-27.21,41.54h0c-3.23,17.03.37,34.29,10.13,48.62,9.71,14.25,24.37,23.89,41.29,27.16Z"/><path class="cls-1" d="M157.05,875.88l-11.2-408.42L0,242.55l106.34,7.61,52.4-45.48L224.75,0l57.24,167.97,130.51-117.44-16.62,182.96,139.26,3.25-86.38,113.42,93.73,44.4-107.51,59.14,43.74,74.6-112.32-17.55-43.09,37.49-166.25,327.62ZM50.22,272.21l121.42,187.23,8.59,313.3,122.18-240.78,56.05-48.75,70.1,10.95-29.52-50.35,86.38-47.52-76.77-36.37,74.92-98.38-116.1-2.71,13.13-144.63-110.52,99.45-44.65-131.05-44.16,136.96-66.03,57.3-65.02-4.66Z"/></g></svg>